PathFileType	4	(X/Y/Z)	S240501-1155_P07_T01_0-394.trc
DataRate	CameraRate	NumFrames	NumMarkers	Units	OrigDataRate	OrigDataStartFrame	OrigNumFrames
60.0	60.0	21	13	m	60.0	0	394
Frame#	Time	Nose			LEye			LEar			LShoulder			LElbow			LWrist			LHip			REye			REar			RShoulder			RElbow			RWrist			RHip		
		X1	Y1	Z1	X2	Y2	Z2	X3	Y3	Z3	X4	Y4	Z4	X5	Y5	Z5	X6	Y6	Z6	X7	Y7	Z7	X8	Y8	Z8	X9	Y9	Z9	X10	Y10	Z10	X11	Y11	Z11	X12	Y12	Z12	X13	Y13	Z13

1	0.017	-0.05872	1.68216	0.15085	-0.08651	1.64868	0.17570	-0.05312	1.59671	0.27651	0.10959	1.52442	0.24194	0.26788	1.54824	0.05874	0.31465	1.62168	-0.15426	0.53366	1.60220	0.21426	-0.08785	1.70873	0.17432	-0.06631	1.76300	0.27558	0.11215	1.84788	0.31680	0.34370	1.93537	0.26534	0.32569	1.89773	0.03814	0.52496	1.81811	0.21622
2	0.033	-0.05855	1.68327	0.15105	-0.08588	1.64856	0.17571	-0.05290	1.59691	0.27589	0.10959	1.52451	0.24301	0.26880	1.54751	0.05824	0.31443	1.62183	-0.15476	0.53366	1.60220	0.21426	-0.08789	1.71029	0.17435	-0.06678	1.76298	0.27522	0.11106	1.84750	0.31703	0.34324	1.93550	0.26521	0.32538	1.89825	0.03829	0.52496	1.81811	0.21622
3	0.050	-0.05850	1.68415	0.15132	-0.08546	1.64856	0.17566	-0.05274	1.59709	0.27527	0.10956	1.52461	0.24393	0.26967	1.54667	0.05793	0.31429	1.62213	-0.15500	0.53366	1.60220	0.21426	-0.08798	1.71183	0.17439	-0.06720	1.76301	0.27483	0.11017	1.84724	0.31715	0.34298	1.93559	0.26518	0.32507	1.89867	0.03851	0.52496	1.81811	0.21622
4	0.067	-0.05860	1.68465	0.15162	-0.08530	1.64870	0.17555	-0.05271	1.59728	0.27460	0.10953	1.52476	0.24455	0.27055	1.54557	0.05796	0.31425	1.62258	-0.15481	0.53366	1.60220	0.21426	-0.08816	1.71321	0.17445	-0.06752	1.76314	0.27443	0.10960	1.84713	0.31711	0.34308	1.93564	0.26536	0.32478	1.89897	0.03875	0.52496	1.81811	0.21622
5	0.083	-0.05880	1.68475	0.15193	-0.08533	1.64891	0.17549	-0.05289	1.59756	0.27385	0.10954	1.52503	0.24484	0.27146	1.54413	0.05840	0.31426	1.62301	-0.15404	0.53366	1.60220	0.21426	-0.08842	1.71424	0.17451	-0.06774	1.76344	0.27411	0.10931	1.84710	0.31691	0.34359	1.93569	0.26572	0.32454	1.89919	0.03890	0.52496	1.81811	0.21622
6	0.100	-0.05903	1.68457	0.15226	-0.08545	1.64913	0.17556	-0.05327	1.59801	0.27300	0.10960	1.52539	0.24485	0.27244	1.54232	0.05930	0.31427	1.62320	-0.15263	0.53366	1.60220	0.21426	-0.08873	1.71483	0.17454	-0.06791	1.76386	0.27398	0.10915	1.84707	0.31653	0.34431	1.93568	0.26618	0.32438	1.89942	0.03896	0.52496	1.81811	0.21622
7	0.117	-0.05930	1.68434	0.15259	-0.08561	1.64934	0.17578	-0.05377	1.59858	0.27211	0.10959	1.52569	0.24463	0.27356	1.54016	0.06069	0.31420	1.62299	-0.15049	0.53366	1.60220	0.21426	-0.08908	1.71507	0.17452	-0.06808	1.76436	0.27399	0.10906	1.84706	0.31591	0.34496	1.93557	0.26655	0.32426	1.89980	0.03907	0.52496	1.81811	0.21622
8	0.133	-0.05968	1.68424	0.15282	-0.08576	1.64951	0.17611	-0.05427	1.59912	0.27127	0.10947	1.52580	0.24423	0.27492	1.53769	0.06264	0.31390	1.62237	-0.14756	0.53366	1.60220	0.21426	-0.08943	1.71514	0.17441	-0.06822	1.76489	0.27398	0.10904	1.84712	0.31499	0.34532	1.93535	0.26670	0.32408	1.90046	0.03918	0.52496	1.81811	0.21622
9	0.150	-0.06019	1.68435	0.15288	-0.08588	1.64966	0.17643	-0.05467	1.59942	0.27060	0.10932	1.52563	0.24380	0.27659	1.53493	0.06520	0.31316	1.62138	-0.14383	0.53366	1.60220	0.21426	-0.08973	1.71515	0.17416	-0.06829	1.76539	0.27379	0.10915	1.84732	0.31370	0.34531	1.93510	0.26667	0.32377	1.90145	0.03893	0.52496	1.81811	0.21622
10	0.167	-0.06077	1.68461	0.15273	-0.08593	1.64982	0.17661	-0.05489	1.59942	0.27017	0.10930	1.52515	0.24351	0.27855	1.53186	0.06833	0.31181	1.62006	-0.13932	0.53366	1.60220	0.21426	-0.08991	1.71514	0.17381	-0.06823	1.76570	0.27341	0.10929	1.84764	0.31213	0.34501	1.93497	0.26659	0.32338	1.90270	0.03786	0.52496	1.81811	0.21622
11	0.183	-0.06126	1.68485	0.15241	-0.08581	1.65003	0.17650	-0.05488	1.59921	0.26999	0.10949	1.52437	0.24348	0.28071	1.52846	0.07194	0.30975	1.61847	-0.13411	0.53366	1.60220	0.21426	-0.08997	1.71510	0.17353	-0.06803	1.76567	0.27287	0.10939	1.84796	0.31049	0.34462	1.93509	0.26654	0.32306	1.90403	0.03583	0.52496	1.81811	0.21622
12	0.200	-0.06151	1.68498	0.15200	-0.08546	1.65030	0.17611	-0.05465	1.59889	0.27006	0.10983	1.52338	0.24375	0.28296	1.52477	0.07583	0.30701	1.61672	-0.12838	0.53366	1.60220	0.21426	-0.08997	1.71503	0.17340	-0.06770	1.76532	0.27218	0.10943	1.84822	0.30904	0.34426	1.93552	0.26642	0.32287	1.90524	0.03316	0.52496	1.81811	0.21622
13	0.217	-0.06147	1.68505	0.15158	-0.08490	1.65053	0.17555	-0.05430	1.59858	0.27028	0.11019	1.52237	0.24417	0.28521	1.52088	0.07975	0.30378	1.61502	-0.12250	0.53366	1.60220	0.21426	-0.08990	1.71494	0.17336	-0.06732	1.76481	0.27133	0.10953	1.84842	0.30791	0.34396	1.93612	0.26612	0.32280	1.90625	0.03041	0.52496	1.81811	0.21622
14	0.233	-0.06115	1.68508	0.15121	-0.08421	1.65057	0.17500	-0.05396	1.59837	0.27054	0.11047	1.52150	0.24460	0.28744	1.51694	0.08359	0.30024	1.61352	-0.11693	0.53366	1.60220	0.21426	-0.08974	1.71481	0.17336	-0.06699	1.76435	0.27040	0.10975	1.84865	0.30699	0.34362	1.93664	0.26563	0.32283	1.90704	0.02810	0.52496	1.81811	0.21622
15	0.250	-0.06064	1.68504	0.15087	-0.08352	1.65038	0.17462	-0.05370	1.59826	0.27079	0.11065	1.52086	0.24503	0.28973	1.51313	0.08746	0.29646	1.61223	-0.11197	0.53366	1.60220	0.21426	-0.08946	1.71452	0.17334	-0.06680	1.76407	0.26961	0.11009	1.84894	0.30603	0.34304	1.93691	0.26486	0.32297	1.90768	0.02672	0.52496	1.81811	0.21622
16	0.267	-0.06006	1.68489	0.15057	-0.08294	1.65010	0.17444	-0.05355	1.59817	0.27100	0.11075	1.52038	0.24559	0.29220	1.50955	0.09157	0.29252	1.61109	-0.10755	0.53366	1.60220	0.21426	-0.08908	1.71406	0.17325	-0.06673	1.76396	0.26911	0.11041	1.84925	0.30490	0.34204	1.93689	0.26378	0.32323	1.90821	0.02655	0.52496	1.81811	0.21622
17	0.283	-0.05951	1.68460	0.15036	-0.08253	1.64992	0.17436	-0.05354	1.59803	0.27116	0.11085	1.51992	0.24651	0.29487	1.50621	0.09603	0.28849	1.61005	-0.10336	0.53366	1.60220	0.21426	-0.08862	1.71352	0.17306	-0.06670	1.76390	0.26889	0.11057	1.84945	0.30375	0.34057	1.93664	0.26265	0.32356	1.90864	0.02749	0.52496	1.81811	0.21622
18	0.300	-0.05904	1.68419	0.15025	-0.08227	1.64981	0.17425	-0.05366	1.59779	0.27128	0.11100	1.51939	0.24788	0.29766	1.50301	0.10082	0.28444	1.60910	-0.09897	0.53366	1.60220	0.21426	-0.08807	1.71302	0.17277	-0.06665	1.76370	0.26888	0.11057	1.84932	0.30285	0.33891	1.93620	0.26211	0.32381	1.90891	0.02921	0.52496	1.81811	0.21622
19	0.317	-0.05859	1.68365	0.15026	-0.08210	1.64962	0.17407	-0.05385	1.59745	0.27137	0.11118	1.51877	0.24961	0.30040	1.49985	0.10580	0.28036	1.60829	-0.09399	0.53366	1.60220	0.21426	-0.08748	1.71261	0.17244	-0.06661	1.76325	0.26899	0.11050	1.84880	0.30238	0.33750	1.93563	0.26254	0.32385	1.90888	0.03145	0.52496	1.81811	0.21622
20	0.333	-0.05809	1.68302	0.15032	-0.08196	1.64914	0.17382	-0.05405	1.59696	0.27133	0.11132	1.51811	0.25146	0.30293	1.49672	0.11078	0.27622	1.60772	-0.08817	0.53366	1.60220	0.21426	-0.08694	1.71220	0.17219	-0.06660	1.76260	0.26918	0.11040	1.84799	0.30231	0.33661	1.93507	0.26364	0.32374	1.90842	0.03390	0.52496	1.81811	0.21622
21	0.350	-0.05754	1.68232	0.15038	-0.08182	1.64829	0.17354	-0.05421	1.59627	0.27111	0.11135	1.51743	0.25312	0.30508	1.49380	0.11563	0.27199	1.60748	-0.08149	0.53366	1.60220	0.21426	-0.08654	1.71177	0.17211	-0.06664	1.76193	0.26937	0.11027	1.84708	0.30243	0.33623	1.93466	0.26476	0.32359	1.90754	0.03605	0.52496	1.81811	0.21622
